<svg xmlns="http://www.w3.org/2000/svg" viewBox="0 0 1089.59 146.03"><defs><style>.cls-1{fill:#fff;}</style></defs><g id="Capa_2" data-name="Capa 2"><g id="Capa_1-2" data-name="Capa 1"><path d="M451,105.57c11.44-1.93,19.5-7,25.4-15a113.32,113.32,0,0,0,9.78-16.72c4.7-9.5,10.91-17.57,20.33-22.69,10.6-5.75,21.1-7.39,31.08,3.08,2.07-7.33,7.41-7.31,12.95-7.12,6.38.23,6.89.92,4.4,6.66Q547.11,71.9,539.27,90a39.31,39.31,0,0,0-1.53,3.69c-1.47,4.61,1,8,5.73,7,3.23-.71,7.12-2.32,8.94-4.82,7.53-10.31,14.45-21.07,21.37-31.8.65-1-.25-3-.43-4.57-.45-3.89-1.55-7.84-1.18-11.65a8,8,0,0,1,8.32-7.09c3.75.34,6.92,3.92,7.15,8.39.11,2.29-.22,4.6-.39,7.63,4.5,1.2,9.08,2.51,13.71,3.66,9.6,2.41,12,6.83,8.54,16.1-2,5.46-4.41,10.81-6.16,16.36-.61,1.95-.6,5.1.56,6.33s4.5,1.82,6.32,1.16c3-1.1,6.28-2.86,8.19-5.32,4.43-5.73,8.89-11.68,11.92-18.2,5.3-11.4,12.1-21.11,23.67-26.68,10.09-4.84,19.87-5.72,29.12,4.32,1.83-7.58,7.32-7.58,13-7.35,5.93.25,6.62,1.1,4.33,6.47C695.18,66,689.64,78.31,684.6,90.82c-1,2.55-1.51,6.87-.08,8.54,2.71,3.19,6.87,1.63,10-.6C703,92.64,708.34,84,712.89,74.86c3.72-7.44,6.68-15.26,10.23-22.79,3-6.43,14.79-7.21,18.49-1.61,3.87-1.05,7.61-2.49,11.47-3,5.44-.71,10.5.94,13.53,5.74,2.49,3.94,4.44,3.15,7.43.75,5.43-4.37,11.4-7.4,18.8-6.55,8.29,1,13.86,6,13.73,14.28a57.66,57.66,0,0,1-2.87,15.53C802,82.93,799.2,88.32,797.18,94c-1.7,4.77.71,7.82,5.61,6.69,3.08-.71,6.66-2.27,8.53-4.62,5.14-6.44,10.33-13.09,14-20.42,5.61-11.26,12.53-21.06,24.18-26.23,4.81-2.13,10.56-2.74,15.91-2.91,5.93-.19,10.54,3.16,13,8.64,2.54,5.72,1.55,11.57-2.68,15.82a45.28,45.28,0,0,1-14,10c-5.87,2.47-12.49,3.37-18.88,4.3-4,.58-4.69,2.23-3.8,5.65,1.62,6.25,6.52,10.29,13.53,10.58,15.05.63,26.12-6.35,33.11-19.15,5.34-9.77,9.44-20.21,14-30.41,1.59-3.6,4.32-5,8-4.67,3.83.34,8.68-2,10.43,3.46,3.27-1.09,6.32-2.66,9.52-3.09,12.37-1.66,20.37,6.58,18.36,18.92a68.16,68.16,0,0,1-3.46,12c-1.58,4.39-3.92,8.52-5.21,13-.75,2.56-.09,5.53-.06,8.32,3.15-.15,7,.82,9.34-.65A42.2,42.2,0,0,0,963.22,78.5c3.31-8.34,7.79-15.79,14.53-21.82,12.94-11.56,24.32-12.62,39-3.15,3-6.51,6-13,8.9-19.42,1.92-4.24,3.69-8.56,5.69-12.77,2.08-4.4,12.77-7.38,16.52-4.34.92.75.9,3.67.27,5.15-3.88,9.21-8.09,18.27-12.12,27.42-6.12,13.86-12.32,27.69-18.12,41.69-1,2.37-1.24,6.41.12,8.08,2.54,3.11,6.58,1.79,9.55-.26,8.63-6,14-14.55,18.46-23.79,3.59-7.51,6.78-15.22,10.25-22.79,2.16-4.69,12.43-7.78,16.33-4.61,1,.78.78,4,.09,5.6-4.79,11.53-9.89,22.94-14.82,34.42a36.63,36.63,0,0,0-2.38,7.08c-.8,4,1.24,6.65,5.13,5.73s8.05-2.67,10.84-5.36c4.26-4.1,7.31-9.44,11.17-14,1.18-1.39,3.33-2,5-2.89.69,1.86,2.2,3.85,1.94,5.58-2,13.23-19.89,28.49-33,28.57-7.78,0-14-2.65-17.2-9.27-5.4,2.91-10.17,6.45-15.52,8.14-8.36,2.62-16.27,1.08-21.84-6.56-1.93-2.64-3.25-1.43-5.31-.18-4.35,2.64-8.73,5.7-13.53,7.07-9.55,2.72-16.41-1-20.8-9.92-.35-.7-.85-1.32-1.49-2.31-2,2-3.68,3.74-5.45,5.42a26.85,26.85,0,0,1-17.52,7.51c-13.54.76-21.06-8.46-17.22-21.53,1.5-5.09,3.78-10,5.73-14.92,1-2.63,2.57-5.16,3.09-7.88.59-3,1.62-7.44.1-9.13-2.92-3.25-7.37-.81-9.78,1.6-5.11,5.12-10.37,10.5-13.87,16.72-5.28,9.4-9.09,19.62-13.58,29.47-2.26,5-12.27,8.19-16.71,5.18-1.08-.73-1.3-2.71-2-4.28-18.32,6.16-36.88,11.74-50.29-10.44-2.11,2.26-4.15,4.56-6.3,6.75-5.92,6-13.05,9.06-21.58,8.5-11.15-.73-17.35-8.79-14.47-19.61,1.67-6.24,4.41-12.19,6.65-18.28a101.62,101.62,0,0,0,3.5-9.87c1.3-5.14-1.73-8.09-6.61-6.07-3.41,1.42-7,3.66-9.13,6.58a174.2,174.2,0,0,0-12.28,20.48c-3.39,6.48-6,13.36-9.08,20-1.91,4.12-12.45,7.12-15.6,4.18-.91-.86-.71-3.75-.05-5.3,4.63-10.88,9.6-21.62,14.25-32.49a31.66,31.66,0,0,0,2.44-9.08c.44-4.07-2-6.39-5.77-5-4.08,1.52-8.65,3.62-11.22,6.87a127.51,127.51,0,0,0-12.6,20.23c-3.69,7.07-6.48,14.61-9.75,21.91-2.87,6.39-14,7.94-19,2.5-11.37,4.65-22,5.06-30.3-7-1.72,1.24-3.12,2.64-4.82,3.42-4.9,2.27-9.74,5.27-14.93,6.2-8.38,1.5-13.91-2.18-17.73-9.82-.43-.87-.95-1.68-1.58-2.77-5.41,5.64-10.66,11.17-18.61,12.24a33.54,33.54,0,0,1-9.9.11c-10-1.74-14.87-9.21-12.16-19a120.52,120.52,0,0,1,6.14-16.34c1.69-3.82,1.5-6.31-2.89-7.61a17.18,17.18,0,0,1-3.61-1.69c-2.73-1.56-4.34-1-5.95,1.9-4.83,8.54-9.81,17-15.09,25.27-4.8,7.52-10.43,14.43-19.55,17C537,114,528.88,113,523,105c-1.88-2.54-3.24-1.52-5.36-.25-4.49,2.71-9,5.85-14,7.18-9.39,2.5-16.1-1.31-20.29-10.09-.41-.85-.94-1.65-1.76-3.06-8.89,11-20.66,15.92-33.62,18.78-1.69.37-3.18,2.6-4.33,4.27-3.47,5.05-6.24,10.67-10.19,15.29-6.05,7.09-14.46,9.28-23.52,8.48-5.34-.48-10.22-2.39-12.1-8.14s-.3-10.93,3.94-15.1c6.57-6.47,15.11-9.13,23.77-10.84,6.15-1.22,8.47-4.92,10.06-11.35-2.08,1.08-3.43,1.76-4.77,2.47-8.46,4.54-17.43,6.83-27,5.17C390,105.43,380.92,95.4,380.07,79.7c-.48-8.79,1.39-17.8,3-26.56.7-3.77.71-5.39-3.23-7-8.92-3.64-16.29-9.19-18.39-19.46-1.81-8.84,3.79-18.92,12.24-21.58,1.59-.49,3.61.41,5.44.66-.55,1.74-1.07,3.48-1.66,5.2a1.69,1.69,0,0,1-.71.69C367.1,17.8,366,28.06,380.36,35.33c1.19.6,2.48,1,3.67,1.57,3.45,1.73,5.51.84,7.63-2.59,9.33-15.08,22-26.18,39.26-31.49,8.74-2.7,17.64-3.82,26.55-1,11.28,3.64,15.21,13.32,9.6,23.78-6.23,11.63-17,17.61-28.87,21.67a79.71,79.71,0,0,1-33,4.18c-4.36-.4-6.32,1.08-7.41,5.18-2.43,9.19-3.62,18.32-.27,27.51,3.53,9.65,10.58,13.42,20.49,11,12.15-3,21.18-10.56,27.84-20.66,4.73-7.19,8.31-15.15,12.17-22.88,2.91-5.83,10.8-9.08,16.65-6.06.95.49,1.39,3.78.77,5.24C470.82,61.67,465.87,72.41,461,83.2,457.84,90.29,454.67,97.4,451,105.57ZM405.44,40.29c12.05.05,22.25-1.88,32-6,7.39-3.1,14.58-6.7,19.43-13.45,4.06-5.65,1.83-10.88-5-12.09a14.77,14.77,0,0,0-5-.11C428.07,11.87,415.79,23.64,405.44,40.29Zm90.91,52.35c-.07,6.42,3.72,9,9.94,6.26,14.09-6.25,21.19-18.15,24.94-32.39,1-3.94-1.35-6.51-5.23-7a16.26,16.26,0,0,0-6.82.92C507.67,64.45,496.48,80.35,496.35,92.64Zm478.92,0c-.06,6.61,3.89,9.13,10.38,6.11,13.73-6.39,20.71-18.21,24.65-32.14,1.11-3.91-1.34-6.94-5.46-7.22a17.62,17.62,0,0,0-6.81,1C986.56,64.43,975.38,80.38,975.27,92.62Zm-333.4.19c0,6.36,3.82,8.87,10.1,6,14-6.34,21.12-18.21,24.75-32.49.92-3.63-1.24-6.29-4.93-6.71a17.12,17.12,0,0,0-7.29.91C652.94,64.6,641.85,80.58,641.87,92.81Zm199.74-17L843,77.26c5.34-1.68,10.86-2.94,15.93-5.21,3.17-1.42,6-4.11,8.32-6.76,1-1.14,1.37-4.17.57-5.32s-3.56-1.85-5.24-1.55c-7.93,1.41-13.94,6-18.44,12.52A42.75,42.75,0,0,0,841.61,75.84ZM426.34,121.92c-6.5.61-12.06,1.82-16.89,5.2-2.6,1.82-5.33,4.43-3.25,7.9s5.85,2.76,8.95,1.25C420.85,133.5,423.8,128.42,426.34,121.92Z"/><path d="M307.71,43.17c-3.4-.22-5.64,0-7.63-.63-1.25-.39-2.12-2-3.15-3.1,1-.93,2-1.92,3-2.77a2,2,0,0,1,1.46-.15c7.54,1.3,11.34-2.6,13.21-9.34a26.79,26.79,0,0,1,1.84-4.1c2.85-6.1,10.63-9.24,16.61-6.29,1,.49,1.57,3.42,1.11,4.81-1.42,4.21-3.44,8.21-5.58,13.1,3.34,0,6.06-.53,8.41.16,2,.6,3.67,2.59,5.47,4a65.16,65.16,0,0,1-5.37,4.77c-.66.48-1.95.11-2.95.08-11.21-.36-8.86-1.93-13.59,8.76-5.47,12.33-11,24.65-16.29,37-1.47,3.44-3.79,7.62.09,10.55s8,.64,11-1.93c4.34-3.79,8-8.34,11.85-12.7,1.3-1.48,1.91-3.62,3.33-4.94,1.15-1.08,3.77-2.34,4.44-1.82a6.16,6.16,0,0,1,2.2,4.82c-1.58,11.23-18.47,27.48-29.73,29-10.9,1.44-16.46-1.63-21.56-11-7.25-.28-13.73-.73-20.19-.63-1.64,0-3.48,1.6-4.83,2.87-8,7.56-17.16,11.3-28.26,9.38-7.37-1.27-13-4.81-16.06-11.95a31.45,31.45,0,0,0-1.8-3.08c-5.77,6.93-11.74,13-20.71,14.26s-17.05,0-22.36-9.37c-5.83,5.82-12.26,9.64-20.36,9.77s-14.83-2.11-18.72-10.27c-6.52,7-13.83,10.69-23,10.25C96.22,112,89.8,102.45,94.51,90c1.27-3.34,2.67-6.64,4.42-11-5.45,2.19-9.68,3.92-14,5.58-2.57,1-5.55,1.11-6.16-1.89-.33-1.58,1.62-4.33,3.28-5.45,3.69-2.51,8-4.14,11.79-6.47a42.85,42.85,0,0,0,17.32-19.51q6.27-14.16,12.57-28.31c2.69-6.11,10.61-9.28,16.65-6.51,3.23,1.48,1.68,3.88.76,5.94C134.83,36.67,128.41,51,122,65.25q-5.19,11.64-10.22,23.34a24.38,24.38,0,0,0-1.89,6.18c-.64,4.71,1.93,7.28,6.44,6,3.25-1,7-2.43,9-4.91,5.32-6.51,10.8-13.21,14.44-20.71,8.35-17.22,15.65-35,23.39-52.47,2.47-5.58,11.72-8.94,16.87-5.74,1,.62,1.26,3.91.6,5.41C174.28,37,167.59,51.48,161,66.07q-5,11.16-9.81,22.43a27.16,27.16,0,0,0-2,6.66c-.59,4,2,6.79,5.91,5.67,3.56-1,7.65-2.55,9.94-5.2a103.31,103.31,0,0,0,12.7-18.28c4.16-7.75,7.16-16.12,10.76-24.18,2.38-5.34,11.54-8.52,16.49-5.41,1,.61,1.14,3.87.49,5.42-4.8,11.53-9.94,22.91-14.88,34.39a39.91,39.91,0,0,0-2.51,7.56c-.8,3.77,1.21,6.32,4.83,5.57s8.27-2.07,10.51-4.77c5.35-6.43,10.47-13.38,14-20.9,6.4-13.49,15-24,30-27.84,17.09-4.41,30.32,6.44,28.86,24-.51,6.18-2.59,12.23-4.1,18.94,4.15,2.16,8.56,1.57,12.36-1.67a22.92,22.92,0,0,0,5.82-7.32C296.2,68.88,301.7,56.43,307.71,43.17ZM230.25,91.06c1.22,2,2.58,6.26,5.46,8.61,3.85,3.13,8.6,1.36,12.6-1.07,5.76-3.5,7.34-7.28,6.32-13.83-1-6.13.12-11.88,5.33-15.66,3.58-2.58,2.76-4.8.76-7.44-3.31-4.34-9.55-4.82-15.31-.79C235.7,67.66,231.67,77.59,230.25,91.06Z"/><path d="M43.88,57.9a40.07,40.07,0,0,1,4.39.49c3.4.76,6.93,1.26,10.11,2.59a12,12,0,0,1,7.54,13.25c-1.07,5.5-5.6,9.4-11.64,10-7.1.67-13.11-1.84-18.23-6.57a19.55,19.55,0,0,1-2.65-3.91c-15,10.3-20.08,33.68-11.28,47.8,6.67,10.71,20.63,14.79,35.19,10.22,6.2-1.94,11.91-5,15.21-10.67a26.15,26.15,0,0,0,3.1-11.23c.25-4-2.44-6.82-6.32-8s-6.86.34-9.3,3.21c-2,2.32-3.73,6.59-7.24,3.78S52,102.23,54,99.44c3.88-5.32,9.31-7.31,15.81-6.23,6.95,1.14,11.44,5.35,13.6,11.81,3.35,10,.18,19-6.45,26.41-13.27,14.75-30.49,17-48.65,12.53C11.5,139.78,3.19,127.39.49,110.9c-2.86-17.44,7.07-37,23.26-46.45,1.77-1,4.24-2.43,4.57-4A38.11,38.11,0,0,0,28.59,49c-.09-1-2.52-1.79-4-2.44-9.17-4-17-9.37-19.23-20C3.54,17.79,8.84,8,17.09,5.19c1.8-.6,4.16.48,6.26.78a30,30,0,0,1-2.57,5.35c-1.16,1.58-3.06,2.59-4.34,4.1-3.93,4.62-4.07,10.27.41,14.32,3.25,2.94,7.42,4.9,11.29,7.1,3.42,1.95,5.56.68,7.6-2.68,9.15-15,21.82-25.92,38.77-31.34C83.55-.07,92.74-1.34,102,2c10.62,3.78,14.39,12.63,9.5,22.76-5.51,11.43-15.68,17.4-27,21.68a84.92,84.92,0,0,1-34.88,5.1C44.7,51.24,43.41,53.19,43.88,57.9Zm5.41-17.73C67,39.86,82.18,36,95.46,26.12c6.21-4.59,8.45-9.62,6.67-13.25-2-4.09-7.89-5.65-15.32-3.65C70.22,13.69,59,24.75,49.29,40.17ZM43,66.51c1.76,6.12,4.5,8.87,8.75,9.21,1.82.15,3.8-1.63,5.71-2.53-1-1.69-1.59-4.4-3-4.88C51.31,67.2,47.73,67.16,43,66.51Z"/><path d="M1083.9,28.31a8.09,8.09,0,0,1-8.43,8A8.26,8.26,0,1,1,1076,19.8,8,8,0,0,1,1083.9,28.31Z"/><path d="M216.57,28.23a8.29,8.29,0,1,1-8-8.42A8.16,8.16,0,0,1,216.57,28.23Z"/><path class="cls-1" d="M426.34,121.92c-2.54,6.5-5.49,11.58-11.19,14.35-3.1,1.51-6.82,2.29-8.95-1.25s.65-6.08,3.25-7.9C414.28,123.74,419.84,122.53,426.34,121.92Z"/></g></g></svg>